<svg xmlns="http://www.w3.org/2000/svg" width="24" height="24" viewBox="0 0 24 24"><path fill="#e1dddd" d="M.133 12.423a.8.8 0 0 1 0-.848c.216-.375 5.302-8.373 11.82-8.373a9.077 9.077 0 0 1 3.622.8.802.802 0 0 1-.64 1.471 7.382 7.382 0 0 0-2.982-.671c-4.847 0-9.07 5.598-10.18 7.197a24.376 24.376 0 0 0 2.83 3.391.8.8 0 0 1 0 1.136.8.8 0 0 1-1.136 0 25.791 25.791 0 0 1-3.334-4.103zm23.632-.848a.8.8 0 0 1 0 .848c-.216.376-5.294 8.373-11.812 8.373a10.26 10.26 0 0 1-5.67-1.935L1.38 23.763a.8.8 0 0 1-1.135 0 .8.8 0 0 1 0-1.135l5.366-5.374L17.207 5.657 22.629.235a.803.803 0 1 1 1.136 1.136l-4.799 4.798a25.12 25.12 0 0 1 4.799 5.406zm-9.077-1.127-4.35 4.35a3.199 3.199 0 0 0 3.813-.537 3.199 3.199 0 0 0 .537-3.813zm7.437 1.551a23.888 23.888 0 0 0-4.278-4.71l-2.008 2.007a4.798 4.798 0 0 1-6.653 6.654l-1.752 1.76a8.525 8.525 0 0 0 4.519 1.487c4.854 0 9.069-5.598 10.172-7.198zM11.89 7.201a4.798 4.798 0 0 0-4.799 4.798 1.136 1.136 0 0 0 0 .288.8.8 0 0 0 .8.608.8.8 0 0 0 .192 0 .8.8 0 0 0 .608-.896A3.199 3.199 0 0 1 11.889 8.8a.814.814 0 0 0 .304-1.6 1.136 1.136 0 0 0-.304 0z"/></svg>