<svg xmlns="http://www.w3.org/2000/svg" width="24" height="24" viewBox="0 0 24 24"><path fill="#005ca9" d="M23.878 11.417C23.66 11.039 18.556 3 11.996 3S.331 11.04.122 11.417a.804.804 0 0 0 0 .852c.21.378 5.322 8.417 11.874 8.417s11.665-8.04 11.882-8.417a.804.804 0 0 0 0-.852zm-11.882 7.661c-4.88 0-9.116-5.627-10.226-7.235 1.11-1.608 5.346-7.235 10.226-7.235s9.116 5.627 10.234 7.235c-1.118 1.608-5.354 7.235-10.234 7.235zM11.94 7.02a4.823 4.823 0 1 0 0 9.647 4.823 4.823 0 0 0 0-9.647zm0 8.039a3.216 3.216 0 1 1 0-6.432 3.216 3.216 0 0 1 0 6.432z"/></svg>